<?xml version="1.0" encoding="utf-8" ?>
<svg baseProfile="full" height="256" version="1.1" width="256" xmlns="http://www.w3.org/2000/svg" xmlns:ev="http://www.w3.org/2001/xml-events" xmlns:xlink="http://www.w3.org/1999/xlink"><defs /><polyline fill="none" points="138.0,215.5 137.0,215.5 136.0,215.5 135.0,215.5 134.0,215.5 133.0,215.5 132.0,215.5 131.0,215.5 130.0,215.5 129.0,215.5 128.0,215.5 127.0,215.5 126.0,215.5 125.0,215.5 124.0,215.5 123.0,215.5 122.0,215.5 121.0,215.5 120.0,215.5 119.0,215.5 118.0,215.5 117.5,215.0 117.0,214.5 116.0,214.5 115.0,214.5 114.0,214.5 113.0,214.5 112.0,214.5 111.0,214.5 110.0,214.5 109.0,214.5 108.0,214.5 107.0,214.5 106.0,214.5 105.5,214.0 105.0,213.5 104.0,213.5 103.0,213.5 102.0,213.5 101.0,213.5 100.0,213.5 99.0,213.5 98.5,213.0 98.0,212.5 97.0,212.5 96.0,212.5 95.0,212.5 94.0,212.5 93.5,212.0 93.0,211.5 92.0,211.5 91.0,211.5 90.0,211.5 89.5,211.0 89.0,210.5 88.0,210.5 87.0,210.5 86.0,210.5 85.5,210.0 85.0,209.5 84.0,209.5 83.0,209.5 82.5,209.0 82.0,208.5 81.0,208.5 80.0,208.5 79.5,208.0 79.0,207.5 78.0,207.5 77.5,207.0 77.0,206.5 76.0,206.5 75.0,206.5 74.5,206.0 74.0,205.5 73.0,205.5 72.5,205.0 72.0,204.5 71.0,204.5 70.0,204.5 69.5,204.0 69.0,203.5 68.0,203.5 67.5,203.0 67.0,202.5 66.0,202.5 65.5,202.0 65.0,201.5 64.5,201.0 64.0,200.5 63.0,200.5 62.5,200.0 62.0,199.5 61.0,199.5 60.5,199.0 60.0,198.5 59.5,198.0 59.0,197.5 58.0,197.5 57.5,197.0 57.0,196.5 56.5,196.0 56.0,195.5 55.5,195.0 55.0,194.5 54.0,194.5 53.5,194.0 53.0,193.5 52.5,193.0 52.0,192.5 51.5,192.0 51.0,191.5 50.5,191.0 50.0,190.5 49.5,190.0 49.0,189.5 48.5,189.0 48.0,188.5 47.5,188.0 47.0,187.5 46.5,187.0 46.0,186.5 45.5,186.0 45.0,185.5 44.5,185.0 44.0,184.5 43.5,184.0 43.0,183.5 42.5,183.0 42.0,182.5 41.5,182.0 41.5,181.0 41.0,180.5 40.5,180.0 40.0,179.5 39.5,179.0 39.5,178.0 39.0,177.5 38.5,177.0 38.0,176.5 37.5,176.0 37.5,175.0 37.0,174.5 36.5,174.0 36.5,173.0 36.0,172.5 35.5,172.0 35.5,171.0 35.0,170.5 34.5,170.0 34.5,169.0 34.0,168.5 33.0,168.5 32.0,168.5 31.0,168.5 30.5,169.0 30.0,169.5 29.0,169.5 28.0,169.5 27.0,169.5 26.0,169.5 25.5,169.0 25.5,168.0 25.5,167.0 25.5,166.0 26.0,165.5 27.0,165.5 27.5,165.0 28.0,164.5 29.0,164.5 30.0,164.5 30.5,164.0 31.0,163.5 32.0,163.5 32.5,163.0 32.0,162.5 31.5,162.0 31.5,161.0 31.5,160.0 31.5,159.0 31.0,158.5 30.5,158.0 30.5,157.0 30.5,156.0 30.5,155.0 30.5,154.0 30.5,153.0 30.0,152.5 29.5,152.0 29.5,151.0 29.5,150.0 29.0,149.5 28.5,149.0 28.0,148.5 27.0,148.5 26.0,148.5 25.0,148.5 24.0,148.5 23.0,148.5 22.5,148.0 22.0,147.5 21.5,147.0 21.5,146.0 22.0,145.5 22.5,145.0 23.0,144.5 24.0,144.5 25.0,144.5 26.0,144.5 27.0,144.5 28.0,144.5 28.5,144.0 29.0,143.5 29.5,143.0 29.5,142.0 29.5,141.0 29.5,140.0 29.5,139.0 29.5,138.0 29.5,137.0 29.5,136.0 29.5,135.0 29.5,134.0 29.5,133.0 29.5,132.0 30.0,131.5 30.5,131.0 30.5,130.0 30.5,129.0 30.5,128.0 30.5,127.0 31.0,126.5 31.5,126.0 31.5,125.0 31.5,124.0 31.5,123.0 32.0,122.5 32.5,122.0 32.5,121.0 32.5,120.0 32.5,119.0 33.0,118.5 33.5,118.0 33.5,117.0 33.5,116.0 34.0,115.5 34.5,115.0 34.5,114.0 34.5,113.0 35.0,112.5 35.5,112.0 35.5,111.0 36.0,110.5 36.5,110.0 36.5,109.0 37.0,108.5 37.5,108.0 37.5,107.0 38.0,106.5 38.5,106.0 38.5,105.0 38.5,104.0 38.5,103.0 38.5,102.0 38.0,101.5 37.5,101.0 37.5,100.0 37.5,99.0 37.5,98.0 37.5,97.0 37.5,96.0 37.0,95.5 36.5,95.0 36.5,94.0 36.5,93.0 36.5,92.0 36.5,91.0 36.5,90.0 36.5,89.0 36.5,88.0 36.5,87.0 36.5,86.0 36.5,85.0 36.5,84.0 36.5,83.0 36.5,82.0 36.5,81.0 36.5,80.0 36.5,79.0 36.5,78.0 36.5,77.0 36.5,76.0 36.5,75.0 36.5,74.0 36.5,73.0 36.5,72.0 36.5,71.0 36.5,70.0 36.5,69.0 37.0,68.5 37.5,68.0 37.5,67.0 37.5,66.0 37.5,65.0 37.5,64.0 37.5,63.0 38.0,62.5 38.5,62.0 38.5,61.0 38.5,60.0 38.5,59.0 38.5,58.0 39.0,57.5 39.5,57.0 39.5,56.0 39.5,55.0 39.5,54.0 40.0,53.5 40.5,53.0 40.5,52.0 40.5,51.0 40.5,50.0 41.0,49.5 41.5,49.0 41.5,48.0 42.0,47.5 42.5,47.0 42.5,46.0 43.0,45.5 43.5,45.0 44.0,44.5 44.5,44.0 45.0,43.5 46.0,43.5 46.5,43.0 47.0,42.5 48.0,42.5 49.0,42.5 50.0,42.5 51.0,42.5 52.0,42.5 53.0,42.5 53.5,43.0 54.0,43.5 55.0,43.5 56.0,43.5 57.0,43.5 57.5,44.0 58.0,44.5 59.0,44.5 59.5,45.0 60.0,45.5 61.0,45.5 61.5,46.0 62.0,46.5 63.0,46.5 63.5,47.0 64.0,47.5 65.0,47.5 65.5,48.0 66.0,48.5 67.0,48.5 67.5,49.0 68.0,49.5 69.0,49.5 69.5,50.0 70.0,50.5 71.0,50.5 71.5,51.0 72.0,51.5 72.5,52.0 73.0,52.5 74.0,52.5 74.5,53.0 75.0,53.5 75.5,54.0 76.0,54.5 77.0,54.5 77.5,55.0 78.0,55.5 78.5,56.0 79.0,56.5 80.0,56.5 80.5,57.0 81.0,57.5 82.0,57.5 82.5,58.0 83.0,58.5 83.5,59.0 84.0,59.5 85.0,59.5 85.5,60.0 86.0,60.5 86.5,61.0 87.0,61.5 87.5,62.0 88.0,62.5 89.0,62.5 89.5,63.0 90.0,63.5 90.5,64.0 91.0,64.5 92.0,64.5 93.0,64.5 94.0,64.5 94.5,64.0 95.0,63.5 96.0,63.5 97.0,63.5 97.5,63.0 98.0,62.5 99.0,62.5 100.0,62.5 100.5,62.0 101.0,61.5 102.0,61.5 103.0,61.5 104.0,61.5 104.5,61.0 105.0,60.5 106.0,60.5 107.0,60.5 108.0,60.5 109.0,60.5 110.0,60.5 110.5,60.0 111.0,59.5 112.0,59.5 113.0,59.5 114.0,59.5 115.0,59.5 116.0,59.5 117.0,59.5 118.0,59.5 118.5,59.0 119.0,58.5 120.0,58.5 121.0,58.5 122.0,58.5 123.0,58.5 124.0,58.5 125.0,58.5 126.0,58.5 127.0,58.5 128.0,58.5 129.0,58.5 130.0,58.5 131.0,58.5 132.0,58.5 133.0,58.5 134.0,58.5 135.0,58.5 136.0,58.5 136.5,59.0 137.0,59.5 138.0,59.5 139.0,59.5 140.0,59.5 141.0,59.5 142.0,59.5 143.0,59.5 144.0,59.5 145.0,59.5 145.5,60.0 146.0,60.5 147.0,60.5 148.0,60.5 149.0,60.5 150.0,60.5 150.5,61.0 151.0,61.5 152.0,61.5 153.0,61.5 154.0,61.5 154.5,62.0 155.0,62.5 156.0,62.5 157.0,62.5 158.0,62.5 158.5,63.0 159.0,63.5 160.0,63.5 161.0,63.5 161.5,64.0 162.0,64.5 163.0,64.5 164.0,64.5 164.5,64.0 165.0,63.5 165.5,63.0 166.0,62.5 167.0,62.5 167.5,62.0 168.0,61.5 168.5,61.0 169.0,60.5 169.5,60.0 170.0,59.5 171.0,59.5 171.5,59.0 172.0,58.5 173.0,58.5 173.5,58.0 174.0,57.5 174.5,57.0 175.0,56.5 176.0,56.5 176.5,56.0 177.0,55.5 177.5,55.0 178.0,54.5 179.0,54.5 179.5,54.0 180.0,53.5 180.5,53.0 181.0,52.5 181.5,52.0 182.0,51.5 183.0,51.5 183.5,51.0 184.0,50.5 185.0,50.5 185.5,50.0 186.0,49.5 187.0,49.5 187.5,49.0 188.0,48.5 189.0,48.5 189.5,48.0 190.0,47.5 191.0,47.5 191.5,47.0 192.0,46.5 193.0,46.5 193.5,46.0 194.0,45.5 195.0,45.5 195.5,45.0 196.0,44.5 197.0,44.5 197.5,44.0 198.0,43.5 199.0,43.5 200.0,43.5 200.5,43.0 201.0,42.5 202.0,42.5 203.0,42.5 204.0,42.5 205.0,42.5 206.0,42.5 207.0,42.5 208.0,42.5 208.5,43.0 209.0,43.5 210.0,43.5 210.5,44.0 211.0,44.5 211.5,45.0 211.5,46.0 212.0,46.5 212.5,47.0 213.0,47.5 213.5,48.0 213.5,49.0 214.0,49.5 214.5,50.0 214.5,51.0 214.5,52.0 214.5,53.0 215.0,53.5 215.5,54.0 215.5,55.0 215.5,56.0 215.5,57.0 216.0,57.5 216.5,58.0 216.5,59.0 216.5,60.0 216.5,61.0 217.0,61.5 217.5,62.0 217.5,63.0 217.5,64.0 217.5,65.0 217.5,66.0 217.5,67.0 218.0,67.5 218.5,68.0 218.5,69.0 218.5,70.0 218.5,71.0 218.5,72.0 218.5,73.0 218.5,74.0 218.5,75.0 218.5,76.0 218.5,77.0 218.5,78.0 218.5,79.0 218.5,80.0 218.5,81.0 218.5,82.0 218.5,83.0 218.5,84.0 218.5,85.0 218.5,86.0 218.5,87.0 218.5,88.0 218.5,89.0 218.5,90.0 218.5,91.0 218.5,92.0 218.5,93.0 218.5,94.0 218.5,95.0 218.0,95.5 217.5,96.0 217.5,97.0 217.5,98.0 217.5,99.0 217.5,100.0 217.5,101.0 217.0,101.5 216.5,102.0 216.5,103.0 216.5,104.0 216.5,105.0 216.5,106.0 217.0,106.5 217.5,107.0 218.0,107.5 218.5,108.0 218.5,109.0 219.0,109.5 219.5,110.0 219.5,111.0 219.5,112.0 220.0,112.5 220.5,113.0 220.5,114.0 221.0,114.5 221.5,115.0 221.5,116.0 221.5,117.0 221.5,118.0 222.0,118.5 222.5,119.0 222.5,120.0 222.5,121.0 222.5,122.0 223.0,122.5 223.5,123.0 223.5,124.0 223.5,125.0 223.5,126.0 224.0,126.5 224.5,127.0 224.5,128.0 224.5,129.0 224.5,130.0 224.5,131.0 225.0,131.5 225.5,132.0 225.5,133.0 225.5,134.0 225.5,135.0 225.5,136.0 225.5,137.0 225.5,138.0 225.5,139.0 225.5,140.0 226.0,140.5 226.5,141.0 226.5,142.0 226.0,142.5 225.5,143.0 226.0,143.5 226.5,144.0 227.0,144.5 228.0,144.5 229.0,144.5 230.0,144.5 231.0,144.5 232.0,144.5 232.5,145.0 232.5,146.0 233.0,146.5 233.5,147.0 233.0,147.5 232.5,148.0 232.0,148.5 231.0,148.5 230.0,148.5 229.0,148.5 228.5,149.0 228.0,149.5 227.5,149.0 227.0,148.5 226.5,149.0 226.0,149.5 225.5,150.0 225.5,151.0 225.5,152.0 225.5,153.0 225.0,153.5 224.5,154.0 224.5,155.0 224.5,156.0 224.5,157.0 224.5,158.0 224.0,158.5 223.5,159.0 223.5,160.0 223.5,161.0 223.5,162.0 223.0,162.5 222.5,163.0 223.0,163.5 224.0,163.5 224.5,164.0 225.0,164.5 226.0,164.5 227.0,164.5 227.5,165.0 228.0,165.5 229.0,165.5 229.5,166.0 229.5,167.0 229.5,168.0 229.5,169.0 229.0,169.5 228.0,169.5 227.0,169.5 226.0,169.5 225.0,169.5 224.5,169.0 224.0,168.5 223.0,168.5 222.0,168.5 221.0,168.5 220.5,169.0 220.5,170.0 220.0,170.5 219.5,171.0 219.5,172.0 219.0,172.5 218.5,173.0 218.5,174.0 218.0,174.5 217.5,175.0 217.5,176.0 217.0,176.5 216.5,177.0 216.0,177.5 215.5,178.0 215.5,179.0 215.0,179.5 214.5,180.0 214.0,180.5 213.5,181.0 213.5,182.0 213.0,182.5 212.5,183.0 212.0,183.5 211.5,184.0 211.0,184.5 210.5,185.0 210.0,185.5 209.5,186.0 209.0,186.5 208.5,187.0 208.0,187.5 207.5,188.0 207.0,188.5 206.5,189.0 206.0,189.5 205.5,190.0 205.0,190.5 204.5,191.0 204.0,191.5 203.5,192.0 203.0,192.5 202.5,193.0 202.0,193.5 201.5,194.0 201.0,194.5 200.5,195.0 200.0,195.5 199.0,195.5 198.5,196.0 198.0,196.5 197.5,197.0 197.0,197.5 196.0,197.5 195.5,198.0 195.0,198.5 194.0,198.5 193.5,199.0 193.0,199.5 192.5,200.0 192.0,200.5 191.0,200.5 190.5,201.0 190.0,201.5 189.5,202.0 189.0,202.5 188.0,202.5 187.5,203.0 187.0,203.5 186.0,203.5 185.5,204.0 185.0,204.5 184.0,204.5 183.0,204.5 182.5,205.0 182.0,205.5 181.0,205.5 180.5,206.0 180.0,206.5 179.0,206.5 178.0,206.5 177.5,207.0 177.0,207.5 176.0,207.5 175.5,208.0 175.0,208.5 174.0,208.5 173.0,208.5 172.5,209.0 172.0,209.5 171.0,209.5 170.0,209.5 169.5,210.0 169.0,210.5 168.0,210.5 167.0,210.5 166.0,210.5 165.5,211.0 165.0,211.5 164.0,211.5 163.0,211.5 162.0,211.5 161.5,212.0 161.0,212.5 160.0,212.5 159.0,212.5 158.0,212.5 157.0,212.5 156.5,213.0 156.0,213.5 155.0,213.5 154.0,213.5 153.0,213.5 152.0,213.5 151.0,213.5 150.0,213.5 149.5,214.0 149.0,214.5 148.0,214.5 147.0,214.5 146.0,214.5 145.0,214.5 144.0,214.5 143.0,214.5 142.0,214.5 141.0,214.5 140.0,214.5 139.0,214.5 138.5,215.0 138.0,215.5" stroke="black" stroke-width="1" /><polyline fill="none" points="143.5,210.0 144.0,209.5 145.0,209.5 146.0,209.5 147.0,209.5 148.0,209.5 149.0,209.5 150.0,209.5 151.0,209.5 151.5,209.0 152.0,208.5 153.0,208.5 154.0,208.5 155.0,208.5 156.0,208.5 157.0,208.5 157.5,208.0 158.0,207.5 159.0,207.5 160.0,207.5 161.0,207.5 162.0,207.5 162.5,207.0 163.0,206.5 164.0,206.5 165.0,206.5 166.0,206.5 166.5,206.0 167.0,205.5 168.0,205.5 169.0,205.5 170.0,205.5 170.5,205.0 171.0,204.5 172.0,204.5 173.0,204.5 173.5,204.0 174.0,203.5 175.0,203.5 176.0,203.5 176.5,203.0 177.0,202.5 178.0,202.5 178.5,202.0 179.0,201.5 180.0,201.5 180.5,201.0 181.0,200.5 182.0,200.5 182.5,200.0 183.0,199.5 184.0,199.5 184.5,199.0 185.0,198.5 186.0,198.5 187.0,198.5 187.5,198.0 188.0,197.5 188.5,197.0 189.0,196.5 190.0,196.5 190.5,196.0 191.0,195.5 192.0,195.5 192.5,195.0 193.0,194.5 193.5,194.0 194.0,193.5 195.0,193.5 195.5,193.0 196.0,192.5 196.5,192.0 197.0,191.5 197.5,191.0 198.0,190.5 199.0,190.5 199.5,190.0 200.0,189.5 200.5,189.0 201.0,188.5 201.5,188.0 202.0,187.5 202.5,187.0 203.0,186.5 203.5,186.0 204.0,185.5 204.5,185.0 205.0,184.5 205.5,184.0 206.0,183.5 206.5,183.0 207.0,182.5 207.5,182.0 208.0,181.5 208.5,181.0 208.5,180.0 209.0,179.5 209.5,179.0 210.0,178.5 210.5,178.0 211.0,177.5 211.5,177.0 211.5,176.0 212.0,175.5 212.5,175.0 213.0,174.5 213.5,174.0 213.5,173.0 214.0,172.5 214.5,172.0 214.5,171.0 215.0,170.5 215.5,170.0 215.5,169.0 215.5,168.0 216.0,167.5 216.5,167.0 216.0,166.5 215.0,166.5 214.0,166.5 213.5,166.0 213.0,165.5 212.0,165.5 211.0,165.5 210.0,165.5 209.0,165.5 208.0,165.5 207.5,165.0 207.0,164.5 206.0,164.5 205.0,164.5 204.0,164.5 203.5,164.0 203.0,163.5 202.5,163.0 202.5,162.0 202.5,161.0 203.0,160.5 203.5,160.0 204.0,159.5 205.0,159.5 205.5,160.0 206.0,160.5 207.0,160.5 208.0,160.5 209.0,160.5 210.0,160.5 211.0,160.5 211.5,161.0 212.0,161.5 213.0,161.5 214.0,161.5 215.0,161.5 216.0,161.5 216.5,162.0 217.0,162.5 217.5,162.0 218.0,161.5 218.5,161.0 218.5,160.0 219.0,159.5 219.5,159.0 219.5,158.0 219.5,157.0 219.5,156.0 220.0,155.5 220.5,155.0 220.5,154.0 220.5,153.0 220.5,152.0 220.5,151.0 220.5,150.0 220.0,149.5 219.0,149.5 218.0,149.5 217.0,149.5 216.0,149.5 215.5,150.0 215.0,150.5 214.0,150.5 213.0,150.5 212.0,150.5 211.0,150.5 210.0,150.5 209.5,151.0 209.0,151.5 208.0,151.5 207.0,151.5 206.0,151.5 205.0,151.5 204.5,151.0 204.0,150.5 203.5,150.0 203.5,149.0 204.0,148.5 204.5,148.0 205.0,147.5 206.0,147.5 206.5,147.0 207.0,146.5 208.0,146.5 209.0,146.5 210.0,146.5 211.0,146.5 212.0,146.5 212.5,146.0 213.0,145.5 214.0,145.5 215.0,145.5 216.0,145.5 217.0,145.5 218.0,145.5 219.0,145.5 220.0,145.5 220.5,145.0 221.0,144.5 221.5,144.0 221.5,143.0 221.5,142.0 221.5,141.0 221.5,140.0 221.5,139.0 221.5,138.0 221.5,137.0 221.0,136.5 220.5,136.0 220.5,135.0 220.5,134.0 220.5,133.0 220.5,132.0 220.5,131.0 220.5,130.0 220.5,129.0 220.0,128.5 219.5,128.0 219.5,127.0 219.5,126.0 219.5,125.0 219.0,124.5 218.5,124.0 218.5,123.0 218.5,122.0 218.0,121.5 217.5,121.0 217.5,120.0 217.5,119.0 217.0,118.5 216.5,118.0 216.5,117.0 216.5,116.0 216.0,115.5 215.5,115.0 215.5,114.0 215.5,113.0 215.0,112.5 214.5,112.0 214.5,111.0 214.0,110.5 213.5,110.0 213.5,109.0 213.0,108.5 212.5,108.0 212.5,107.0 212.0,106.5 211.5,106.0 211.5,105.0 211.5,104.0 212.0,103.5 212.5,103.0 212.5,102.0 212.5,101.0 212.5,100.0 212.5,99.0 212.5,98.0 213.0,97.5 213.5,97.0 213.5,96.0 213.5,95.0 213.5,94.0 213.5,93.0 213.5,92.0 213.5,91.0 213.5,90.0 213.5,89.0 213.5,88.0 213.5,87.0 213.5,86.0 214.0,85.5 214.5,85.0 214.5,84.0 214.5,83.0 214.5,82.0 214.5,81.0 214.5,80.0 214.5,79.0 214.5,78.0 214.0,77.5 213.5,77.0 213.5,76.0 213.5,75.0 213.5,74.0 213.5,73.0 213.5,72.0 213.5,71.0 213.5,70.0 213.5,69.0 213.5,68.0 213.5,67.0 213.5,66.0 213.0,65.5 212.5,65.0 212.5,64.0 212.5,63.0 212.5,62.0 212.5,61.0 212.5,60.0 212.0,59.5 211.5,59.0 211.5,58.0 211.5,57.0 211.0,56.5 210.5,56.0 210.5,55.0 210.5,54.0 210.5,53.0 210.0,52.5 209.5,52.0 209.5,51.0 209.0,50.5 208.5,50.0 208.5,49.0 208.0,48.5 207.5,48.0 207.0,47.5 206.0,47.5 205.0,47.5 204.0,47.5 203.0,47.5 202.0,47.5 201.5,48.0 201.0,48.5 200.0,48.5 199.0,48.5 198.5,49.0 198.0,49.5 197.0,49.5 196.0,49.5 195.5,50.0 195.0,50.5 194.0,50.5 193.5,51.0 193.0,51.5 192.0,51.5 191.5,52.0 191.0,52.5 190.0,52.5 189.5,53.0 189.0,53.5 188.5,54.0 188.0,54.5 187.0,54.5 186.5,55.0 186.0,55.5 185.0,55.5 184.5,56.0 184.0,56.5 183.5,57.0 183.0,57.5 182.0,57.5 181.5,58.0 181.0,58.5 180.0,58.5 179.5,59.0 179.0,59.5 178.5,60.0 178.0,60.5 177.0,60.5 176.5,61.0 176.0,61.5 175.5,62.0 175.0,62.5 174.0,62.5 173.5,63.0 173.0,63.5 172.5,64.0 172.0,64.5 171.0,64.5 170.5,65.0 170.0,65.5 169.5,66.0 169.0,66.5 168.0,66.5 167.5,67.0 167.0,67.5 166.5,68.0 166.0,68.5 165.5,69.0 165.0,69.5 164.0,69.5 163.0,69.5 162.0,69.5 161.5,69.0 161.0,68.5 160.0,68.5 159.0,68.5 158.5,68.0 158.0,67.5 157.0,67.5 156.0,67.5 155.5,67.0 155.0,66.5 154.0,66.5 153.0,66.5 152.0,66.5 151.5,66.0 151.0,65.5 150.0,65.5 149.0,65.5 148.0,65.5 147.0,65.5 146.5,65.0 146.0,64.5 145.0,64.5 144.0,64.5 143.0,64.5 142.0,64.5 141.0,64.5 140.0,64.5 139.5,64.0 139.0,63.5 138.0,63.5 137.0,63.5 136.0,63.5 135.0,63.5 134.0,63.5 133.0,63.5 132.0,63.5 131.0,63.5 130.0,63.5 129.0,63.5 128.0,63.5 127.0,63.5 126.0,63.5 125.0,63.5 124.0,63.5 123.0,63.5 122.0,63.5 121.0,63.5 120.0,63.5 119.0,63.5 118.0,63.5 117.0,63.5 116.0,63.5 115.5,64.0 115.0,64.5 114.0,64.5 113.0,64.5 112.0,64.5 111.0,64.5 110.0,64.5 109.0,64.5 108.5,65.0 108.0,65.5 107.0,65.5 106.0,65.5 105.0,65.5 104.0,65.5 103.5,66.0 103.0,66.5 102.0,66.5 101.0,66.5 100.0,66.5 99.5,67.0 99.0,67.5 98.0,67.5 97.0,67.5 96.5,68.0 96.0,68.5 95.0,68.5 94.0,68.5 93.5,69.0 93.0,69.5 92.0,69.5 91.0,69.5 90.0,69.5 89.5,69.0 89.0,68.5 88.5,68.0 88.0,67.5 87.5,67.0 87.0,66.5 86.0,66.5 85.5,66.0 85.0,65.5 84.5,65.0 84.0,64.5 83.0,64.5 82.5,64.0 82.0,63.5 81.5,63.0 81.0,62.5 80.0,62.5 79.5,62.0 79.0,61.5 78.5,61.0 78.0,60.5 77.0,60.5 76.5,60.0 76.0,59.5 75.5,59.0 75.0,58.5 74.0,58.5 73.5,58.0 73.0,57.5 72.0,57.5 71.5,57.0 71.0,56.5 70.5,56.0 70.0,55.5 69.0,55.5 68.5,55.0 68.0,54.5 67.0,54.5 66.5,54.0 66.0,53.5 65.0,53.5 64.5,53.0 64.0,52.5 63.5,52.0 63.0,51.5 62.0,51.5 61.5,51.0 61.0,50.5 60.0,50.5 59.5,50.0 59.0,49.5 58.0,49.5 57.0,49.5 56.5,49.0 56.0,48.5 55.0,48.5 54.0,48.5 53.5,48.0 53.0,47.5 52.0,47.5 51.0,47.5 50.0,47.5 49.0,47.5 48.0,47.5 47.5,48.0 47.0,48.5 46.5,49.0 46.5,50.0 46.0,50.5 45.5,51.0 45.5,52.0 45.0,52.5 44.5,53.0 44.5,54.0 44.5,55.0 44.5,56.0 44.0,56.5 43.5,57.0 43.5,58.0 43.5,59.0 43.5,60.0 43.0,60.5 42.5,61.0 42.5,62.0 42.5,63.0 42.5,64.0 42.5,65.0 42.5,66.0 42.0,66.5 41.5,67.0 41.5,68.0 41.5,69.0 41.5,70.0 41.5,71.0 41.5,72.0 41.5,73.0 41.5,74.0 41.5,75.0 41.5,76.0 41.5,77.0 41.5,78.0 41.5,79.0 41.5,80.0 41.5,81.0 41.5,82.0 41.5,83.0 41.5,84.0 41.5,85.0 41.5,86.0 41.5,87.0 41.5,88.0 41.5,89.0 41.5,90.0 41.5,91.0 41.5,92.0 41.5,93.0 41.5,94.0 41.5,95.0 42.0,95.5 42.5,96.0 42.5,97.0 42.5,98.0 42.5,99.0 42.5,100.0 42.5,101.0 42.5,102.0 43.0,102.5 43.5,103.0 43.5,104.0 43.5,105.0 43.5,106.0 43.0,106.5 42.5,107.0 42.5,108.0 42.0,108.5 41.5,109.0 41.5,110.0 41.0,110.5 40.5,111.0 40.5,112.0 40.0,112.5 39.5,113.0 39.5,114.0 39.5,115.0 39.0,115.5 38.5,116.0 38.5,117.0 38.5,118.0 38.0,118.5 37.5,119.0 37.5,120.0 37.5,121.0 37.0,121.5 36.5,122.0 36.5,123.0 36.5,124.0 36.5,125.0 36.0,125.5 35.5,126.0 35.5,127.0 35.5,128.0 35.5,129.0 35.0,129.5 34.5,130.0 34.5,131.0 34.5,132.0 34.5,133.0 34.5,134.0 34.5,135.0 34.5,136.0 34.5,137.0 34.0,137.5 33.5,138.0 33.5,139.0 33.5,140.0 33.5,141.0 33.5,142.0 33.5,143.0 33.5,144.0 34.0,144.5 35.0,144.5 35.5,145.0 36.0,145.5 37.0,145.5 38.0,145.5 39.0,145.5 40.0,145.5 41.0,145.5 42.0,145.5 42.5,146.0 43.0,146.5 44.0,146.5 45.0,146.5 46.0,146.5 47.0,146.5 48.0,146.5 48.5,147.0 49.0,147.5 50.0,147.5 51.0,147.5 51.5,148.0 51.5,149.0 51.5,150.0 51.0,150.5 50.5,151.0 50.0,151.5 49.0,151.5 48.0,151.5 47.0,151.5 46.0,151.5 45.5,151.0 45.0,150.5 44.0,150.5 43.0,150.5 42.0,150.5 41.0,150.5 40.0,150.5 39.5,150.0 39.0,149.5 38.0,149.5 37.0,149.5 36.0,149.5 35.0,149.5 34.5,150.0 34.5,151.0 34.5,152.0 34.5,153.0 34.5,154.0 34.5,155.0 35.0,155.5 35.5,156.0 35.5,157.0 35.5,158.0 35.5,159.0 36.0,159.5 36.5,160.0 36.5,161.0 36.5,162.0 37.0,162.5 38.0,162.5 39.0,162.5 39.5,162.0 40.0,161.5 41.0,161.5 42.0,161.5 43.0,161.5 43.5,161.0 44.0,160.5 45.0,160.5 46.0,160.5 47.0,160.5 48.0,160.5 49.0,160.5 49.5,160.0 50.0,159.5 50.5,160.0 51.0,160.5 51.5,161.0 52.0,161.5 52.5,162.0 52.5,163.0 52.0,163.5 51.5,164.0 51.0,164.5 50.0,164.5 49.0,164.5 48.0,164.5 47.5,165.0 47.0,165.5 46.0,165.5 45.0,165.5 44.0,165.5 43.0,165.5 42.0,165.5 41.5,166.0 41.0,166.5 40.0,166.5 39.0,166.5 38.5,167.0 38.5,168.0 39.0,168.5 39.5,169.0 39.5,170.0 40.0,170.5 40.5,171.0 40.5,172.0 41.0,172.5 41.5,173.0 41.5,174.0 42.0,174.5 42.5,175.0 43.0,175.5 43.5,176.0 43.5,177.0 44.0,177.5 44.5,178.0 45.0,178.5 45.5,179.0 46.0,179.5 46.5,180.0 46.5,181.0 47.0,181.5 47.5,182.0 48.0,182.5 48.5,183.0 49.0,183.5 49.5,184.0 50.0,184.5 50.5,185.0 51.0,185.5 51.5,186.0 52.0,186.5 52.5,187.0 53.0,187.5 53.5,188.0 54.0,188.5 54.5,189.0 55.0,189.5 55.5,190.0 56.0,190.5 57.0,190.5 57.5,191.0 58.0,191.5 58.5,192.0 59.0,192.5 60.0,192.5 60.5,193.0 61.0,193.5 61.5,194.0 62.0,194.5 62.5,195.0 63.0,195.5 64.0,195.5 64.5,196.0 65.0,196.5 66.0,196.5 66.5,197.0 67.0,197.5 68.0,197.5 68.5,198.0 69.0,198.5 70.0,198.5 70.5,199.0 71.0,199.5 72.0,199.5 72.5,200.0 73.0,200.5 74.0,200.5 74.5,201.0 75.0,201.5 76.0,201.5 76.5,202.0 77.0,202.5 78.0,202.5 79.0,202.5 79.5,203.0 80.0,203.5 81.0,203.5 81.5,204.0 82.0,204.5 83.0,204.5 84.0,204.5 85.0,204.5 85.5,205.0 86.0,205.5 87.0,205.5 88.0,205.5 88.5,206.0 89.0,206.5 90.0,206.5 91.0,206.5 92.0,206.5 92.5,207.0 93.0,207.5 94.0,207.5 95.0,207.5 96.0,207.5 97.0,207.5 97.5,208.0 98.0,208.5 99.0,208.5 100.0,208.5 101.0,208.5 102.0,208.5 103.0,208.5 103.5,209.0 104.0,209.5 105.0,209.5 106.0,209.5 107.0,209.5 108.0,209.5 109.0,209.5 110.0,209.5 111.0,209.5 111.5,210.0 112.0,210.5 113.0,210.5 114.0,210.5 115.0,210.5 116.0,210.5 117.0,210.5 118.0,210.5 119.0,210.5 120.0,210.5 121.0,210.5 122.0,210.5 123.0,210.5 124.0,210.5 125.0,210.5 126.0,210.5 127.0,210.5 128.0,210.5 129.0,210.5 130.0,210.5 131.0,210.5 132.0,210.5 133.0,210.5 134.0,210.5 135.0,210.5 136.0,210.5 137.0,210.5 138.0,210.5 139.0,210.5 140.0,210.5 141.0,210.5 142.0,210.5 143.0,210.5 143.5,210.0" stroke="black" stroke-width="1" /><polyline fill="none" points="54.0,98.5 53.0,98.5 52.0,98.5 51.5,98.0 51.0,97.5 50.5,97.0 50.5,96.0 50.5,95.0 50.5,94.0 50.5,93.0 50.5,92.0 50.5,91.0 50.5,90.0 50.5,89.0 50.0,88.5 49.5,88.0 49.5,87.0 49.5,86.0 49.5,85.0 49.5,84.0 49.5,83.0 49.5,82.0 49.5,81.0 49.5,80.0 50.0,79.5 50.5,79.0 50.5,78.0 50.5,77.0 50.5,76.0 50.5,75.0 50.5,74.0 50.5,73.0 50.5,72.0 50.5,71.0 50.5,70.0 51.0,69.5 51.5,69.0 51.5,68.0 51.5,67.0 51.5,66.0 52.0,65.5 52.5,65.0 52.5,64.0 53.0,63.5 53.5,63.0 54.0,62.5 55.0,62.5 55.5,62.0 56.0,61.5 57.0,61.5 58.0,61.5 58.5,62.0 59.0,62.5 60.0,62.5 60.5,63.0 61.0,63.5 62.0,63.5 62.5,64.0 63.0,64.5 64.0,64.5 64.5,65.0 65.0,65.5 66.0,65.5 66.5,66.0 67.0,66.5 67.5,67.0 68.0,67.5 69.0,67.5 69.5,68.0 70.0,68.5 71.0,68.5 71.5,69.0 72.0,69.5 72.5,70.0 73.0,70.5 73.5,71.0 74.0,71.5 74.5,72.0 75.0,72.5 76.0,72.5 76.5,73.0 77.0,73.5 77.5,74.0 78.0,74.5 78.5,75.0 79.0,75.5 79.5,76.0 79.5,77.0 79.5,78.0 79.0,78.5 78.0,78.5 77.5,79.0 77.0,79.5 76.5,80.0 76.0,80.5 75.0,80.5 74.5,81.0 74.0,81.5 73.5,82.0 73.0,82.5 72.0,82.5 71.5,83.0 71.0,83.5 70.5,84.0 70.0,84.5 69.0,84.5 68.5,85.0 68.0,85.5 67.5,86.0 67.0,86.5 66.5,87.0 66.0,87.5 65.5,88.0 65.0,88.5 64.0,88.5 63.5,89.0 63.0,89.5 62.5,90.0 62.0,90.5 61.5,91.0 61.0,91.5 60.5,92.0 60.0,92.5 59.5,93.0 59.0,93.5 58.5,94.0 58.0,94.5 57.5,95.0 57.0,95.5 56.5,96.0 56.0,96.5 55.5,97.0 55.0,97.5 54.5,98.0 54.0,98.5" stroke="black" stroke-width="1" /><polyline fill="none" points="203.0,98.5 202.0,98.5 201.0,98.5 200.5,98.0 200.0,97.5 199.5,97.0 199.0,96.5 198.5,96.0 198.0,95.5 197.5,95.0 197.0,94.5 196.5,94.0 196.0,93.5 195.5,93.0 195.0,92.5 194.5,92.0 194.0,91.5 193.5,91.0 193.0,90.5 192.5,90.0 192.0,89.5 191.5,89.0 191.0,88.5 190.5,88.0 190.0,87.5 189.0,87.5 188.5,87.0 188.0,86.5 187.5,86.0 187.0,85.5 186.5,85.0 186.0,84.5 185.0,84.5 184.5,84.0 184.0,83.5 183.5,83.0 183.0,82.5 182.5,82.0 182.0,81.5 181.0,81.5 180.5,81.0 180.0,80.5 179.0,80.5 178.5,80.0 178.0,79.5 177.5,79.0 177.0,78.5 176.5,78.0 176.0,77.5 175.5,77.0 175.5,76.0 176.0,75.5 176.5,75.0 177.0,74.5 177.5,74.0 178.0,73.5 178.5,73.0 179.0,72.5 180.0,72.5 180.5,72.0 181.0,71.5 181.5,71.0 182.0,70.5 182.5,70.0 183.0,69.5 183.5,69.0 184.0,68.5 185.0,68.5 185.5,68.0 186.0,67.5 186.5,67.0 187.0,66.5 188.0,66.5 188.5,66.0 189.0,65.5 190.0,65.5 190.5,65.0 191.0,64.5 192.0,64.5 192.5,64.0 193.0,63.5 194.0,63.5 194.5,63.0 195.0,62.5 196.0,62.5 197.0,62.5 197.5,62.0 198.0,61.5 199.0,61.5 199.5,62.0 200.0,62.5 201.0,62.5 201.5,63.0 202.0,63.5 202.5,64.0 202.5,65.0 203.0,65.5 203.5,66.0 203.5,67.0 203.5,68.0 203.5,69.0 204.0,69.5 204.5,70.0 204.5,71.0 204.5,72.0 204.5,73.0 204.5,74.0 204.5,75.0 204.5,76.0 204.5,77.0 204.5,78.0 204.5,79.0 204.5,80.0 204.5,81.0 204.5,82.0 204.5,83.0 204.5,84.0 204.5,85.0 204.5,86.0 204.5,87.0 204.5,88.0 204.5,89.0 204.5,90.0 204.5,91.0 204.5,92.0 204.5,93.0 204.5,94.0 204.5,95.0 204.5,96.0 204.5,97.0 204.0,97.5 203.5,98.0 203.0,98.5" stroke="black" stroke-width="1" /><polyline fill="none" points="55.5,91.0 56.0,90.5 56.5,90.0 57.0,89.5 57.5,89.0 58.0,88.5 58.5,88.0 59.0,87.5 59.5,87.0 60.0,86.5 60.5,86.0 61.0,85.5 62.0,85.5 62.5,85.0 63.0,84.5 63.5,84.0 64.0,83.5 64.5,83.0 65.0,82.5 66.0,82.5 66.5,82.0 67.0,81.5 67.5,81.0 68.0,80.5 69.0,80.5 69.5,80.0 70.0,79.5 70.5,79.0 71.0,78.5 71.5,78.0 72.0,77.5 73.0,77.5 73.5,77.0 73.5,76.0 73.0,75.5 72.5,75.0 72.0,74.5 71.0,74.5 70.5,74.0 70.0,73.5 69.5,73.0 69.0,72.5 68.0,72.5 67.5,72.0 67.0,71.5 66.5,71.0 66.0,70.5 65.0,70.5 64.5,70.0 64.0,69.5 63.5,69.0 63.0,68.5 62.0,68.5 61.5,68.0 61.0,67.5 60.0,67.5 59.5,67.0 59.0,66.5 58.0,66.5 57.0,66.5 56.5,67.0 56.0,67.5 55.5,68.0 55.5,69.0 55.5,70.0 55.5,71.0 55.5,72.0 55.0,72.5 54.5,73.0 54.5,74.0 54.5,75.0 54.5,76.0 54.5,77.0 54.5,78.0 54.5,79.0 54.5,80.0 54.5,81.0 54.5,82.0 54.5,83.0 54.5,84.0 54.5,85.0 54.5,86.0 54.5,87.0 54.5,88.0 54.5,89.0 54.5,90.0 54.5,91.0 55.0,91.5 55.5,91.0" stroke="black" stroke-width="1" /><polyline fill="none" points="200.5,91.0 200.5,90.0 200.5,89.0 200.5,88.0 200.5,87.0 200.5,86.0 200.5,85.0 200.5,84.0 200.5,83.0 200.5,82.0 200.5,81.0 200.5,80.0 200.5,79.0 200.5,78.0 200.5,77.0 200.5,76.0 200.5,75.0 200.5,74.0 200.5,73.0 200.0,72.5 199.5,72.0 199.5,71.0 199.5,70.0 199.5,69.0 199.5,68.0 199.0,67.5 198.5,67.0 198.0,66.5 197.0,66.5 196.0,66.5 195.5,67.0 195.0,67.5 194.0,67.5 193.5,68.0 193.0,68.5 192.0,68.5 191.5,69.0 191.0,69.5 190.5,70.0 190.0,70.5 189.0,70.5 188.5,71.0 188.0,71.5 187.0,71.5 186.5,72.0 186.0,72.5 185.5,73.0 185.0,73.5 184.0,73.5 183.5,74.0 183.0,74.5 182.5,75.0 182.0,75.5 181.5,76.0 181.5,77.0 182.0,77.5 183.0,77.5 183.5,78.0 184.0,78.5 184.5,79.0 185.0,79.5 186.0,79.5 186.5,80.0 187.0,80.5 187.5,81.0 188.0,81.5 188.5,82.0 189.0,82.5 190.0,82.5 190.5,83.0 191.0,83.5 191.5,84.0 192.0,84.5 193.0,84.5 193.5,85.0 194.0,85.5 194.5,86.0 195.0,86.5 195.5,87.0 196.0,87.5 196.5,88.0 197.0,88.5 197.5,89.0 198.0,89.5 198.5,90.0 199.0,90.5 199.5,91.0 200.0,91.5 200.5,91.0" stroke="black" stroke-width="1" /><polyline fill="none" points="87.0,155.5 86.5,155.0 86.0,154.5 85.0,154.5 84.0,154.5 83.0,154.5 82.0,154.5 81.5,154.0 81.0,153.5 80.5,153.0 80.0,152.5 79.5,152.0 79.0,151.5 78.5,151.0 78.0,150.5 77.5,150.0 77.0,149.5 76.5,149.0 76.0,148.5 75.5,148.0 75.5,147.0 75.0,146.5 74.5,146.0 74.5,145.0 74.5,144.0 74.5,143.0 74.5,142.0 74.5,141.0 74.5,140.0 74.5,139.0 74.5,138.0 74.5,137.0 74.5,136.0 74.5,135.0 74.5,134.0 75.0,133.5 75.5,133.0 75.5,132.0 76.0,131.5 76.5,131.0 76.5,130.0 77.0,129.5 77.5,129.0 78.0,128.5 78.5,128.0 79.0,127.5 79.5,127.0 80.0,126.5 80.5,126.0 81.0,125.5 82.0,125.5 82.5,125.0 83.0,124.5 84.0,124.5 85.0,124.5 86.0,124.5 87.0,124.5 88.0,124.5 89.0,124.5 90.0,124.5 91.0,124.5 91.5,125.0 92.0,125.5 93.0,125.5 93.5,126.0 94.0,126.5 94.5,127.0 95.0,127.5 95.5,128.0 96.0,128.5 96.5,129.0 97.0,129.5 97.5,130.0 97.5,131.0 98.0,131.5 98.5,132.0 98.5,133.0 99.0,133.5 99.5,134.0 99.5,135.0 99.5,136.0 99.5,137.0 99.5,138.0 99.5,139.0 99.5,140.0 99.5,141.0 99.5,142.0 99.5,143.0 99.5,144.0 99.5,145.0 99.0,145.5 98.5,146.0 98.5,147.0 98.5,148.0 98.0,148.5 97.5,149.0 97.0,149.5 96.5,150.0 96.0,150.5 95.5,151.0 95.0,151.5 94.5,152.0 94.0,152.5 93.5,153.0 93.0,153.5 92.0,153.5 91.5,154.0 91.0,154.5 90.0,154.5 89.0,154.5 88.0,154.5 87.5,155.0 87.0,155.5" stroke="black" stroke-width="1" /><polyline fill="none" points="172.0,154.5 171.0,154.5 170.0,154.5 169.0,154.5 168.0,154.5 167.0,154.5 166.0,154.5 165.0,154.5 164.0,154.5 163.5,154.0 163.0,153.5 162.0,153.5 161.5,153.0 161.0,152.5 160.5,152.0 160.0,151.5 159.5,151.0 159.0,150.5 158.5,150.0 158.0,149.5 157.5,149.0 157.0,148.5 156.5,148.0 156.5,147.0 156.5,146.0 156.0,145.5 155.5,145.0 155.5,144.0 155.5,143.0 155.5,142.0 155.5,141.0 155.5,140.0 155.5,139.0 155.5,138.0 155.5,137.0 155.5,136.0 155.5,135.0 155.5,134.0 156.0,133.5 156.5,133.0 156.5,132.0 157.0,131.5 157.5,131.0 157.5,130.0 158.0,129.5 158.5,129.0 159.0,128.5 159.5,128.0 160.0,127.5 160.5,127.0 161.0,126.5 161.5,126.0 162.0,125.5 163.0,125.5 163.5,125.0 164.0,124.5 165.0,124.5 166.0,124.5 167.0,124.5 168.0,124.5 169.0,124.5 170.0,124.5 171.0,124.5 172.0,124.5 172.5,125.0 173.0,125.5 174.0,125.5 174.5,126.0 175.0,126.5 175.5,127.0 176.0,127.5 176.5,128.0 177.0,128.5 177.5,129.0 178.0,129.5 178.5,130.0 179.0,130.5 179.5,131.0 179.5,132.0 179.5,133.0 180.0,133.5 180.5,134.0 180.5,135.0 180.5,136.0 180.5,137.0 181.0,137.5 181.5,138.0 181.5,139.0 181.5,140.0 181.5,141.0 181.5,142.0 181.0,142.5 180.5,143.0 180.5,144.0 180.5,145.0 180.5,146.0 180.0,146.5 179.5,147.0 179.5,148.0 179.0,148.5 178.5,149.0 178.0,149.5 177.5,150.0 177.5,151.0 177.0,151.5 176.0,151.5 175.5,152.0 175.0,152.5 174.5,153.0 174.0,153.5 173.0,153.5 172.5,154.0 172.0,154.5" stroke="black" stroke-width="1" /><polyline fill="none" points="90.5,138.0 91.0,137.5 91.5,137.0 91.5,136.0 91.5,135.0 91.5,134.0 91.5,133.0 91.0,132.5 90.5,132.0 90.0,131.5 89.0,131.5 88.0,131.5 87.5,132.0 87.0,132.5 86.5,133.0 86.5,134.0 86.5,135.0 86.5,136.0 86.5,137.0 87.0,137.5 87.5,138.0 88.0,138.5 89.0,138.5 90.0,138.5 90.5,138.0" stroke="black" stroke-width="1" /><polyline fill="none" points="166.5,138.0 167.0,137.5 167.5,137.0 167.5,136.0 167.5,135.0 167.5,134.0 167.5,133.0 167.0,132.5 166.5,132.0 166.0,131.5 165.0,131.5 164.0,131.5 163.5,132.0 163.0,132.5 162.5,133.0 162.5,134.0 162.0,134.5 161.5,135.0 162.0,135.5 162.5,136.0 162.5,137.0 163.0,137.5 163.5,138.0 164.0,138.5 165.0,138.5 166.0,138.5 166.5,138.0" stroke="black" stroke-width="1" /><polyline fill="none" points="139.0,166.5 138.0,166.5 137.0,166.5 136.0,166.5 135.0,166.5 134.0,166.5 133.0,166.5 132.0,166.5 131.5,166.0 131.0,165.5 130.0,165.5 129.5,165.0 129.0,164.5 128.5,164.0 128.0,163.5 127.0,163.5 126.5,164.0 126.0,164.5 125.5,165.0 125.0,165.5 124.0,165.5 123.5,166.0 123.0,166.5 122.0,166.5 121.0,166.5 120.0,166.5 119.0,166.5 118.0,166.5 117.0,166.5 116.0,166.5 115.5,166.0 115.0,165.5 114.0,165.5 113.5,165.0 113.0,164.5 112.5,164.0 112.0,163.5 111.5,163.0 111.0,162.5 110.5,162.0 110.5,161.0 110.0,160.5 109.5,160.0 109.5,159.0 110.0,158.5 111.0,158.5 111.5,158.0 112.0,157.5 112.5,158.0 113.0,158.5 113.5,159.0 114.0,159.5 114.5,160.0 114.5,161.0 115.0,161.5 115.5,162.0 116.0,162.5 117.0,162.5 118.0,162.5 118.5,163.0 119.0,163.5 120.0,163.5 120.5,163.0 121.0,162.5 122.0,162.5 123.0,162.5 123.5,162.0 124.0,161.5 124.5,161.0 124.5,160.0 125.0,159.5 125.5,159.0 125.5,158.0 125.5,157.0 125.5,156.0 125.5,155.0 125.0,154.5 124.5,154.0 124.0,153.5 123.0,153.5 122.5,153.0 122.0,152.5 121.5,152.0 121.5,151.0 121.0,150.5 120.5,150.0 120.5,149.0 120.5,148.0 121.0,147.5 121.5,147.0 122.0,146.5 123.0,146.5 123.5,146.0 124.0,145.5 125.0,145.5 126.0,145.5 127.0,145.5 128.0,145.5 129.0,145.5 130.0,145.5 131.0,145.5 131.5,146.0 132.0,146.5 133.0,146.5 133.5,147.0 134.0,147.5 134.5,148.0 134.5,149.0 134.5,150.0 134.0,150.5 133.5,151.0 133.5,152.0 133.0,152.5 132.5,153.0 132.0,153.5 131.0,153.5 130.5,154.0 130.0,154.5 129.5,155.0 129.5,156.0 129.5,157.0 129.5,158.0 129.5,159.0 130.0,159.5 130.5,160.0 130.5,161.0 131.0,161.5 131.5,162.0 132.0,162.5 133.0,162.5 134.0,162.5 134.5,163.0 135.0,163.5 136.0,163.5 137.0,163.5 137.5,163.0 138.0,162.5 139.0,162.5 139.5,162.0 140.0,161.5 140.5,161.0 140.5,160.0 141.0,159.5 141.5,159.0 142.0,158.5 142.5,158.0 143.0,157.5 144.0,157.5 144.5,158.0 145.0,158.5 145.5,159.0 145.5,160.0 145.5,161.0 145.0,161.5 144.5,162.0 144.0,162.5 143.5,163.0 143.0,163.5 142.5,164.0 142.0,164.5 141.5,165.0 141.0,165.5 140.0,165.5 139.5,166.0 139.0,166.5" stroke="black" stroke-width="1" /></svg>